PathFileType	4	(X/Y/Z)	Patient4_TMGait_0pt7_01_left_37.trc.trc
DataRate	CameraRate	NumFrames	NumMarkers	Units	OrigDataRate	OrigDataStartFrame	OrigNumFrames
82.840236686391	82.840236686391	6	33	mm	82.840236686391	1	       141
Frame#	Time	Sacral			L.Shoulder			Chest			R.Shoulder			Neck			R.ASIS			L.ASIS			R.Thigh.Superior			R.Thigh.Lateral			R.Thigh.Inferior			R.Patella			L.Thigh.Superior			L.Thigh.Lateral			L.Thigh.Inferior			L.Patella			L.Shank.Superior			L.Shank.Lateral			L.Shank.Inferior			R.Shank.Superior			R.Shank.Lateral			R.Shank.Inferior			R.Heel			R.Midfoot.Superior			R.Midfoot.Lateral			R.Toe			L.Heel			L.Midfoot.Lateral			L.Midfoot.Superior			L.Toe			L.Elbow			L.Wrist			R.Elbow			R.Wrist			
		X1	Y1	Z1	X2	Y2	Z2	X3	Y3	Z3	X4	Y4	Z4	X5	Y5	Z5	X6	Y6	Z6	X7	Y7	Z7	X8	Y8	Z8	X9	Y9	Z9	X10	Y10	Z10	X11	Y11	Z11	X12	Y12	Z12	X13	Y13	Z13	X14	Y14	Z14	X15	Y15	Z15	X16	Y16	Z16	X17	Y17	Z17	X18	Y18	Z18	X19	Y19	Z19	X20	Y20	Z20	X21	Y21	Z21	X22	Y22	Z22	X23	Y23	Z23	X24	Y24	Z24	X25	Y25	Z25	X26	Y26	Z26	X27	Y27	Z27	X28	Y28	Z28	X29	Y29	Z29	X30	Y30	Z30	X31	Y31	Z31	X32	Y32	Z32	X33	Y33	Z33	

1	42.740000000000	852.484352154288	1016.234456964495	539.042286945787	1044.114694773071	1438.539949739797	357.339381186299	1151.767902126767	1360.435479301903	512.889103940629	1080.449974114684	1438.875696741483	690.755172058720	1059.387603545147	1496.480535615515	513.663722822476	1080.449374549344	947.180002305071	650.627612302047	1058.985188759413	961.970359893074	376.972043075517	1116.006368829358	745.159977236192	624.739579822077	1030.333516794913	637.668589921228	679.757429373427	1107.965492555257	585.640174078498	600.073420171868	1106.104989692943	498.818349564390	603.805084225766	1135.322097762541	778.077709494058	395.383369966930	1082.465772988977	656.092259798124	314.513038164063	1188.734505946018	589.094833634164	366.127276144628	1198.355204551622	498.907009303387	356.619600533559	1128.590868531824	433.791927031026	353.732257395320	983.708998375861	398.411841259620	310.185363262998	965.464639225612	271.131290704674	367.052779001693	1081.073509861066	410.717336357611	607.574676478829	1010.427220836144	304.438633736460	666.383163243003	1055.424699068173	212.085909413708	599.415405681203	922.127285908566	46.365648504432	566.182283060060	1097.575793329221	98.654703064456	595.337362952615	1009.549558585893	37.210850322735	634.543818062700	1217.263370198592	41.003963248590	612.043444778584	771.746750212697	218.899191301509	408.948331303734	825.154400254099	168.886915573728	328.395223231434	930.934899902115	169.380608787176	348.560538729992	999.549712242162	50.712135474025	320.695428000976	982.041954357329	1093.206724889801	238.753920217632	1039.285593907176	836.751794270645	232.822411488221	1073.771409409528	1098.926466939962	832.643791861918	1252.217343540583	909.972729022482	812.527846945603	
2	42.752071428571	850.872240174179	1016.612246511866	540.521729141160	1042.872546790971	1438.323422222502	357.955246594876	1151.128984527396	1360.072528491436	513.075272387348	1081.153119138131	1438.821333210991	691.220488242062	1059.225807047706	1496.398948764949	514.134027428706	1079.045581148097	947.235735930138	651.506641847442	1056.706398006367	962.126333961156	377.869653642725	1112.881056088502	744.862632419857	625.128891365157	1026.562524326004	637.767700491430	680.434447658548	1103.617222141839	585.106747813289	600.787307844426	1100.944101908536	498.266876709364	604.426631394607	1135.461246768054	781.809850856150	396.272572223561	1085.411819456881	659.153603915213	314.448488977859	1192.906507688849	594.416175505179	365.942215680241	1205.071669988250	505.141412162069	356.071324140383	1138.427981029827	437.865857852810	352.813189844719	996.113628553041	395.405050938628	308.701313113519	984.688108317462	267.305094318860	364.818508498867	1075.067966550511	410.328384806336	608.018794057468	1003.528428279738	304.625751237292	666.759884336941	1047.762021505409	211.937699064469	599.690087285769	913.325017466593	46.766850232733	566.342409407172	1088.841554222217	98.678070691068	595.585252899080	1000.700460741750	37.335402306697	634.646516768284	1208.392228114841	40.746075346537	612.246845185428	794.915794561525	204.419127526815	406.059492374835	850.744696040434	158.346775745258	325.160953200703	955.950436370124	164.540334797976	345.432875846567	1030.704833827655	50.566344640052	316.626240274863	971.516891604138	1095.459977760973	239.129107935602	1015.569041689483	837.762532874894	231.558663815046	1081.580479465488	1099.528625405741	833.797670042626	1266.323393336883	918.245959497626	809.714500038867	
3	42.764142857143	849.266585396075	1016.987639329892	541.948958553741	1041.631252827221	1438.125667453068	358.558297438185	1150.490879726136	1359.707536673481	513.228583101466	1081.844458778444	1438.736790832114	691.669925803987	1059.053037278033	1496.308132929828	514.601833215011	1077.662001800039	947.288226761889	652.318248806052	1054.452899706551	962.253567023187	378.706681109143	1109.765080185318	744.562052575427	625.456524981584	1022.820907637138	637.866908501199	681.089743315862	1099.269870829208	584.572017734584	601.461740722422	1095.782557525750	497.722883746142	605.020919927898	1135.525194591588	785.409206513460	397.132993950416	1088.210599841390	662.098903328419	314.401703962153	1196.854123081400	599.551218113070	365.821411059661	1211.509823925534	511.221388587413	355.587481327055	1148.013545666551	441.854835818182	351.928751364870	1008.370202923214	392.303831133901	307.246382097171	1003.841623004363	263.458551572271	362.585089925156	1069.085227100256	409.941536027418	608.448698000679	996.684267252156	304.803595390618	667.132848791882	1040.166017248795	211.791923997561	599.961857502434	904.613913827593	47.161736377696	566.497603046852	1080.195466166979	98.695436210041	595.824242933373	991.943939428943	37.454203757853	634.747919828720	1199.612328708704	40.492827952265	612.441847104530	818.185507063764	189.924902221553	403.163732685769	876.377215988879	147.826754127412	321.921321448504	980.936658512270	159.720766525617	342.310372377809	1061.783357894165	50.521904499811	312.568151187581	961.088061591446	1097.772992635938	239.487640318935	992.287764432392	838.942386417194	230.416059359510	1089.250255243197	1100.118402488054	834.899347372338	1280.196135280064	926.506628080357	806.799568498330	
4	42.776214285714	847.679551272715	1017.351712445280	543.274770447914	1040.392764955318	1437.962241121293	359.129506859254	1149.850982212957	1359.333364664045	513.312641339864	1082.508879753265	1438.587016082546	692.080560344188	1058.856930296349	1496.195908308563	515.058468274554	1076.311399158605	947.329498607955	652.993116528000	1052.244274019431	962.322838505617	379.415536696023	1106.639193647583	744.240727484266	625.673890219686	1019.081316333186	637.964629343996	681.697007258057	1094.867937614184	584.028181676430	602.063018190402	1090.553848377540	497.190150785076	605.562690732577	1135.414909706709	788.729838080651	397.930129844581	1090.688679233577	664.800238368804	314.371956066980	1200.333629419580	604.301771021534	365.812718889814	1217.378412880089	516.997014842559	355.227691429541	1157.105063626058	445.687414257584	351.111924594952	1020.399872250367	389.022078932448	305.836980983259	1022.936317923506	259.627638474153	360.358724631926	1063.077853247299	409.561906475165	608.852598311614	989.871893284015	304.964834432764	667.490578777198	1032.630183355435	211.650366955182	600.224871514137	896.015089194544	47.537534492738	566.640457821772	1071.655557479220	98.703173429881	596.045144448241	983.302175999481	37.560822015314	634.844961958295	1190.945612909977	40.251661264433	612.621757461542	841.805369131450	175.452718459178	400.249963933149	902.249879462840	137.415720223173	318.680357220201	1005.979990662594	155.030762074466	339.214377441257	1092.826389394029	50.814778415324	308.579029106872	950.808950944818	1100.226539996827	239.827016737116	969.778854250796	840.473057479839	229.517114694284	1096.662211429564	1100.669002259583	835.858264965292	1293.624793080758	934.851443978139	803.609966196409	
5	42.788285714286	846.124788030166	1017.695328507018	544.460414022575	1039.159707267392	1437.845326739520	359.652116108499	1149.206866181598	1358.942775483370	513.296755325618	1083.134803567248	1438.342944763926	692.431584309502	1058.628495674552	1496.052351340029	515.495350461658	1075.000984188507	947.352083970968	653.475600792189	1050.093170978271	962.311045657827	379.939406424471	1103.479745381331	743.879498816261	625.750366838493	1015.299589747795	638.059437737784	682.234142943413	1090.344667246836	583.466472791478	602.566468892018	1085.180306460446	496.672571851418	606.033403013473	1135.040007428698	791.649259322391	398.635087837962	1092.693783979669	667.148278764596	314.354621172300	1203.139276512758	608.502431198691	365.952058499151	1222.439891042457	522.348211737445	355.040951725800	1165.510504193704	449.312093272041	350.394895813054	1032.171825734047	385.497737439564	304.479499394152	1042.012837698323	255.872357063365	358.149686716954	1056.981918126126	409.194926195387	609.221574450289	983.044388678642	305.105116412631	667.822120189773	1025.123156351030	211.514934722229	600.473476962119	887.519583577489	47.883056094998	566.766596324476	1063.210774735336	98.698506274492	596.240109243036	974.767598152381	37.650110273491	634.935106821732	1182.384664266039	40.029408533118	612.782308729788	866.035203171442	161.068878134286	397.302706480043	928.585398215102	127.229072739490	315.443581961905	1031.195502865096	150.605497885020	336.173080757091	1123.909533758959	51.700250155730	304.733244359649	940.708403123061	1102.891888903547	240.153231146052	948.274436042152	842.498911971642	228.956599842845	1103.727294763139	1101.154228682418	836.589557725504	1306.447763421057	943.402969477032	799.980881802534	
6	42.800357142857	844.618404908956	1018.009375791765	545.478592990639	1037.937692653393	1437.781740671767	360.111533560026	1148.557430616809	1358.529496218907	513.159088570327	1083.713152324886	1437.984671839321	692.705091254649	1058.363090765627	1495.870620441930	515.903198322889	1073.733855165667	947.349008457062	653.728972427331	1048.008680099183	962.203690810562	380.236890598237	1100.265732664042	743.459452837974	625.676704999520	1011.423839333059	638.149757107946	682.684331840428	1085.635034223035	582.878594778167	602.958207620733	1079.589193350684	496.174009135473	606.422182594361	1134.328831937159	794.075082859677	399.225582924075	1094.106681635494	669.058921939130	314.339692797947	1205.120447199226	612.029875628971	366.256546137468	1226.526110191482	527.187220234969	355.059256088391	1173.093091092766	452.695705252232	349.805702974694	1043.684819452469	381.707392373583	303.172128705806	1061.099494116145	252.280095327803	355.976458718878	1050.732056701672	408.846079880892	609.549185727615	976.144391305876	305.223115904559	668.116517831161	1017.601958167917	211.387279306004	600.701819823916	879.101462035402	48.188365937281	566.874148915899	1054.833933919958	98.679958512244	596.402870126933	966.315644073396	37.718728482850	635.016334690422	1173.905587370787	39.832330464819	612.921699271258	891.070366921872	146.894435992178	394.311601119092	955.556706212653	117.419205818036	312.226134258640	1056.665232404454	146.603713451554	333.225884260408	1155.073802528924	53.427567820711	301.123658471476	930.805494408828	1105.818223810323	240.479795322626	927.913445899504	845.107456656921	228.792322997349	1110.383478467978	1101.549137669189	837.018621207530	1318.544626699998	952.285807211067	795.776122373613	
